<?xml version="1.0" encoding="utf-8"?>
<svg version="1.1" id="Capa_3" xmlns="http://www.w3.org/2000/svg" xmlns:xlink="http://www.w3.org/1999/xlink" x="0px" y="0px"
	 viewBox="0 0 24 24" style="enable-background:new 0 0 24 24;" xml:space="preserve">
<style type="text/css">
	.st0{fill:none;stroke:#3C3C43;stroke-width:1.5;stroke-linecap:round;stroke-linejoin:round;stroke-miterlimit:133.3333;}
</style>
<path class="st0" d="M8.5,7h10.3 M8.5,12.4h10.3 M8.5,18h10.3 M5.6,6.6L5.6,6.6 M5.6,12L5.6,12 M5.6,17.5L5.6,17.5 M6,6.6
	C6,6.8,5.8,7,5.6,7C5.4,7,5.2,6.8,5.2,6.6c0-0.3,0.2-0.4,0.4-0.4S6,6.3,6,6.6z M6,12c0,0.3-0.2,0.4-0.4,0.4c-0.2,0-0.4-0.1-0.4-0.4
	c0-0.3,0.2-0.4,0.4-0.4S6,11.7,6,12z M6,17.5c0,0.3-0.2,0.4-0.4,0.4c-0.2,0-0.4-0.1-0.4-0.4c0-0.3,0.1-0.4,0.4-0.4S6,17.3,6,17.5z"
	/>
</svg>
