<?xml version="1.0" encoding="utf-8"?>
<!-- Generator: Adobe Illustrator 28.0.0, SVG Export Plug-In . SVG Version: 6.00 Build 0)  -->
<svg version="1.1" id="Capa_2" xmlns="http://www.w3.org/2000/svg" xmlns:xlink="http://www.w3.org/1999/xlink" x="0px" y="0px"
	 viewBox="0 0 24 24" style="enable-background:new 0 0 24 24;" xml:space="preserve">
<style type="text/css">
	.st0{fill:#3C3C43;}
</style>
<path class="st0" d="M12,3.7c-5.3,0-9.6,4.3-9.6,9.6S6.7,23,12,23s9.6-4.3,9.6-9.6S17.4,3.7,12,3.7z M12,21c-4.2,0-7.6-3.4-7.6-7.6
	S7.9,5.8,12,5.8s7.6,3.4,7.6,7.6S16.2,21,12,21z M7.6,2c0-0.6,0.5-1,1-1h6.9c0.6,0,1,0.5,1,1s-0.5,1-1,1H8.6C8,3.1,7.6,2.6,7.6,2z
	 M13.1,9.3v4.1c0,0.6-0.5,1-1,1s-1-0.5-1-1V9.3c0-0.6,0.5-1,1-1S13.1,8.7,13.1,9.3z M22.1,6.9c-0.2,0.2-0.5,0.3-0.7,0.3
	c-0.3,0-0.5-0.1-0.7-0.3l-2.1-2.1c-0.4-0.4-0.4-1.1,0-1.5c0.4-0.4,1.1-0.4,1.5,0l2.1,2.1C22.5,5.8,22.5,6.5,22.1,6.9z"/>
</svg>
