<?xml version="1.0" encoding="utf-8"?>
<svg version="1.1" id="Capa_3" xmlns="http://www.w3.org/2000/svg" xmlns:xlink="http://www.w3.org/1999/xlink" x="0px" y="0px"
	 viewBox="0 0 24 24" style="enable-background:new 0 0 24 24;" xml:space="preserve">
<style type="text/css">
	.st0{fill:none;stroke:#3C3C45;stroke-linecap:round;stroke-linejoin:round;stroke-miterlimit:10;}
	.st1{fill:#3C3C45;}
</style>
<g>
	<path class="st0" d="M12.1,10.7c-0.5-1.2,0.1-2.5,1.2-2.9c1.2-0.5,2.5,0.1,2.9,1.2c0.3,0.7,0.2,1.4-0.2,2"/>
	<path class="st0" d="M16.1,17.2c0,0.4,0,0.8-0.1,1.1c0,0.2-0.1,0.3-0.2,0.5c-0.1,0.3-0.2,0.5-0.4,0.7c-0.3,0.5-0.7,0.9-1.2,1.2
		c-0.2,0.1-0.4,0.2-0.6,0.3c-0.2,0.1-0.4,0.2-0.7,0.2c-0.6,0.1-1.2,0.1-1.8,0l0,0c-0.4-0.1-0.9-0.3-1.2-0.5
		c-0.5-0.3-0.9-0.7-1.2-1.2l0,0c-0.1-0.2-0.2-0.4-0.3-0.6c-0.1-0.2-0.2-0.4-0.2-0.7c-0.1-0.6-0.1-1.2,0-1.8c0.1-0.3,0.2-0.7,0.4-1
		c0-0.1,0.1-0.2,0.2-0.3C9,15,9.2,14.8,9.4,14.6c0,0,0.1-0.1,0.1-0.1c0.1-0.1,0.3-0.3,0.5-0.4c0.4-0.2,0.8-0.4,1.3-0.5l0,0
		c0.5-0.1,1-0.1,1.5,0l0.2,0c0.4,0.1,0.9,0.3,1.3,0.5l0.1,0c0.5,0.3,0.9,0.7,1.2,1.2c0.1,0.2,0.2,0.4,0.3,0.6
		c0.1,0.2,0.2,0.4,0.2,0.7l0,0c0,0.1,0.1,0.3,0.1,0.4C16.1,17.1,16.1,17.2,16.1,17.2z"/>
	<circle class="st0" cx="12.1" cy="17.5" r="1.6"/>
	<path class="st0" d="M7.5,18.6c-1.5,0.6-3.3-0.1-3.9-1.7c-0.6-1.5,0.1-3.3,1.7-3.9c0.7-0.3,1.4-0.3,2.1-0.1"/>
	<path class="st0" d="M19.2,21.9c0,0,1.8-2.2,0.7-4.8"/>
	<path class="st0" d="M8.1,1.3c0,0-4.6,2.5-4.4,7.7"/>
	<path class="st0" d="M1.7,19.9C2.5,21.2,3.8,22,5.3,22"/>
	<path class="st0" d="M8.7,11.1c-0.2-0.8-0.2-1.7,0-2.5C8.8,8,9.1,7.4,9.4,6.9c0.4-0.7,1-1.3,1.8-1.8c0.3-0.2,0.6-0.3,0.9-0.4
		c0.3-0.1,0.6-0.2,0.9-0.3l0,0c2.3-0.5,4.7,0.5,6,2.5c0.3,0.5,0.6,1.1,0.7,1.8c0.2,0.8,0.2,1.6,0,2.5c-0.3,1.5-1.2,2.7-2.5,3.5l0,0
		c-0.3,0.2-0.6,0.3-0.8,0.4c-0.1,0.1-0.3,0.1-0.4,0.1"/>
</g>
<g>
	<path class="st1" d="M10.4,2.1l1.1-0.4c0.3-0.1,0.7,0,0.9,0.4l0.7,1.7c0.1,0.3,0,0.7-0.4,0.9l-1.1,0.4c-0.3,0.1-0.7,0-0.9-0.4L10,3
		C9.9,2.6,10.1,2.3,10.4,2.1z"/>
	<path class="st1" d="M6,7.1L6.5,6C6.6,5.7,7,5.5,7.3,5.7l1.7,0.7c0.3,0.1,0.5,0.5,0.4,0.9L9,8.3C8.8,8.7,8.4,8.8,8.1,8.7L6.4,7.9
		C6,7.8,5.9,7.4,6,7.1z"/>
	<path class="st1" d="M22.4,12.7l-0.5,1.1c-0.1,0.3-0.5,0.5-0.9,0.4l-1.7-0.7c-0.3-0.1-0.5-0.5-0.4-0.9l0.5-1.1
		c0.1-0.3,0.5-0.5,0.9-0.4l1.7,0.7C22.3,12,22.5,12.4,22.4,12.7z"/>
	<path class="st1" d="M22,6.1l0.4,1.1c0.1,0.3,0,0.7-0.4,0.9l-1.7,0.7c-0.3,0.1-0.7,0-0.9-0.4L19,7.3c-0.1-0.3,0-0.7,0.4-0.9
		l1.7-0.7C21.4,5.6,21.8,5.8,22,6.1z"/>
	<path class="st1" d="M17,1.7l1.1,0.5c0.3,0.1,0.5,0.5,0.4,0.9l-0.7,1.7c-0.1,0.3-0.5,0.5-0.9,0.4l-1.1-0.5
		c-0.3-0.1-0.5-0.5-0.4-0.9l0.7-1.7C16.3,1.7,16.7,1.6,17,1.7z"/>
	<path class="st1" d="M9.4,11.9l0.8-0.3c0.2-0.1,0.5,0,0.6,0.3l0.5,1.2c0.1,0.2,0,0.5-0.3,0.6L10.3,14c-0.2,0.1-0.5,0-0.6-0.3
		l-0.5-1.2C9.1,12.3,9.2,12,9.4,11.9z"/>
	<path class="st1" d="M8.8,15.5L8.8,15.5l-0.4,0.8c0,0.1-0.1,0.2-0.2,0.2c-0.1,0.1-0.3,0.1-0.4,0l-1.2-0.5c-0.2-0.1-0.3-0.4-0.2-0.6
		l0.1-0.2l0.2-0.6c0.1-0.2,0.4-0.4,0.6-0.3c0,0,0,0,0,0l1.2,0.5c0.1,0.1,0.2,0.2,0.3,0.3C8.8,15.3,8.8,15.4,8.8,15.5z"/>
	<path class="st1" d="M6.6,20.1l-0.3-0.8c-0.1-0.2,0-0.5,0.3-0.6l1.2-0.5c0.2-0.1,0.5,0,0.6,0.3l0.3,0.8c0.1,0.2,0,0.5-0.3,0.6
		l-1.2,0.5C7,20.5,6.7,20.4,6.6,20.1z"/>
	<path class="st1" d="M10.1,23.2l-0.8-0.3c-0.2-0.1-0.3-0.4-0.2-0.6l0.5-1.2c0.1-0.2,0.4-0.3,0.6-0.2l0.8,0.3
		c0.2,0.1,0.3,0.4,0.2,0.6L10.7,23C10.6,23.2,10.4,23.3,10.1,23.2z"/>
	<path class="st1" d="M14.6,21.1l0.5,1.2c0.1,0.2,0,0.5-0.3,0.6L14,23.2c-0.2,0.1-0.5,0-0.6-0.3L13,21.7c-0.1-0.1,0-0.3,0-0.4
		c0-0.1,0.1-0.1,0.2-0.2l0.8-0.3c0.1,0,0.2,0,0.3,0C14.4,20.8,14.5,21,14.6,21.1z"/>
	<path class="st1" d="M17.9,19.5l-0.2,0.4l-0.2,0.4c-0.1,0.2-0.4,0.3-0.6,0.2l-1.3-0.5c-0.1-0.1-0.2-0.2-0.3-0.3c0-0.1,0-0.2,0-0.3
		l0.3-0.7l0-0.1c0-0.1,0.1-0.2,0.2-0.2c0.1-0.1,0.3-0.1,0.4,0l1.2,0.5C17.9,18.9,18,19.2,17.9,19.5C17.9,19.4,17.9,19.4,17.9,19.5z"
		/>
	<path class="st1" d="M17.6,14.8l0.3,0.8c0.1,0.2,0,0.5-0.3,0.6l-1.2,0.5c-0.2,0.1-0.5,0-0.6-0.3l-0.3-0.8c-0.1-0.2,0-0.5,0.3-0.6
		l1.2-0.5C17.2,14.4,17.5,14.5,17.6,14.8z"/>
	<path class="st1" d="M14.1,11.7l0.8,0.3c0.2,0.1,0.3,0.4,0.2,0.6l-0.5,1.2c-0.1,0.2-0.4,0.3-0.6,0.2l-0.8-0.3
		c-0.2-0.1-0.3-0.4-0.2-0.6l0.5-1.2C13.6,11.7,13.9,11.6,14.1,11.7z"/>
	<path class="st1" d="M4.3,11.7l0.6-0.2c0.2-0.1,0.4,0,0.5,0.2l0.4,0.9c0.1,0.2,0,0.4-0.2,0.5L5,13.2c-0.2,0.1-0.4,0-0.5-0.2
		l-0.4-0.9C4.1,11.9,4.2,11.7,4.3,11.7z"/>
	<path class="st1" d="M2,14.3l0.2-0.6c0.1-0.2,0.3-0.3,0.5-0.2l0.9,0.4c0.2,0.1,0.3,0.3,0.2,0.5L3.6,15c-0.1,0.2-0.3,0.3-0.5,0.2
		l-0.9-0.4C2,14.7,1.9,14.5,2,14.3z"/>
	<path class="st1" d="M2.2,17.8L2,17.2c-0.1-0.2,0-0.4,0.2-0.5l0.9-0.4c0.2-0.1,0.4,0,0.5,0.2l0.2,0.6c0.1,0.2,0,0.4-0.2,0.5L2.7,18
		C2.5,18.1,2.3,18,2.2,17.8z"/>
	<path class="st1" d="M4.8,20.2l-0.6-0.2c-0.2-0.1-0.3-0.3-0.2-0.5l0.4-0.9c0.1-0.2,0.3-0.3,0.5-0.2l0.6,0.2
		c0.2,0.1,0.3,0.3,0.2,0.5L5.3,20C5.2,20.1,5,20.2,4.8,20.2z"/>
</g>
</svg>
