<?xml version="1.0" encoding="utf-8"?>
<svg version="1.1" id="Capa_3" xmlns="http://www.w3.org/2000/svg" xmlns:xlink="http://www.w3.org/1999/xlink" x="0px" y="0px"
	 viewBox="0 0 24 24" style="enable-background:new 0 0 24 24;" xml:space="preserve">
<style type="text/css">
	.st0{fill:#3C3C43;}
</style>
<path class="st0" d="M22.3,6.8h-1.2V6c0-0.6-0.3-1-0.7-1s-0.7,0.5-0.7,1v0.9h-1.3V4c0-0.6-0.4-1-0.9-1c-0.4,0-0.9,0.5-0.9,1v2.9H7.1
	V4c0-0.6-0.4-1-0.9-1c-0.4,0-0.9,0.5-0.9,1v2.9H4V6c0-0.6-0.3-1-0.7-1S2.6,5.5,2.6,6v0.9H1.5c-0.4,0-0.7,0.3-0.7,0.7
	s0.3,0.7,0.7,0.7h1.2v0.9c0,0.6,0.3,1,0.7,1S4,9.7,4,9.1V8.2h1.3v11.2H2.8c-0.5,0-0.9,0.4-0.9,0.9s0.4,0.9,0.9,0.9h18.4
	c0.5,0,0.9-0.4,0.9-0.9s-0.4-0.9-0.9-0.9h-2.7V8.2h1.3v0.9c0,0.6,0.3,1,0.7,1s0.7-0.4,0.7-1V8.2h1.2c0.4,0,0.7-0.3,0.7-0.7
	S22.7,6.8,22.3,6.8z M10.6,15.5c-0.2,0-0.3-0.2-0.3-0.3v-0.3c0-0.2,0.2-0.3,0.3-0.3h2.6c0.1,0,0.3,0.1,0.3,0.3v0.3
	c0,0.1-0.1,0.3-0.3,0.3H10.6z M16.8,19.4h-4v-2.2c0.3,0,0.7,0,0.9,0c0.2,0,0.4,0,0.6,0c0.4,0,0.8-0.3,0.8-0.8c0-0.1,0-0.1,0-0.2
	c0-0.5,0-1,0-1.5c0,0,0-0.1,0-0.1c0-0.8-0.7-1.5-1.5-1.5c0,0-0.1,0-0.1,0c-1.1,0-2.1,0-3.2,0c0,0-0.1,0-0.1,0
	c-0.8,0-1.5,0.7-1.5,1.5c0,0,0,0.1,0,0.1c0,0.5,0,1,0,1.5c0,0.1,0,0.1,0,0.2c0,0.5,0.4,0.8,0.8,0.8c0.2,0,0.4,0,0.6,0
	c0.3,0,0.7,0,0.9,0v2.2h-4V8.2h9.7V19.4z"/>
</svg>
