<?xml version="1.0" encoding="utf-8"?>
<!-- Generator: Adobe Illustrator 28.0.0, SVG Export Plug-In . SVG Version: 6.00 Build 0)  -->
<svg version="1.1" id="Capa_2_00000090294554322208385880000002252055657421391536_"
	 xmlns="http://www.w3.org/2000/svg" xmlns:xlink="http://www.w3.org/1999/xlink" x="0px" y="0px" viewBox="0 0 24 24"
	 style="enable-background:new 0 0 24 24;" xml:space="preserve">
<style type="text/css">
	.st0{fill:#3C3C43;}
</style>
<path class="st0" d="M18.8,14.1c0.3-0.4,0.6-0.8,0.7-1.2c0.4-1.3,0.3-2.6-0.2-4.4C19.2,8.3,19,8.1,18.8,8l-0.1-0.1
	c-0.1-0.1-0.2-0.1-0.3,0c-0.1,0.1-0.1,0.2-0.1,0.3c0.1,0.5,0.1,0.7,0.1,0.9c0.1,1,0.2,2,0.2,3c0,0.9-0.2,1.3-1,1.4
	c-1.5,0.2-3.2,0.1-5.2-0.4V9.4c0-0.1-0.1-0.2-0.2-0.2c-0.1,0-0.2,0-0.3,0.1c-0.1,0-0.1,0-0.2,0c-0.1,0-0.2,0.1-0.2,0.2V13
	c-0.9,0.1-1.7,0.2-2.6,0.3c-0.8,0.1-1.7,0.1-2.4,0c-0.7-0.1-1-0.3-1-1.2c-0.1-0.9,0-1.8,0.1-2.7c0-0.1,0-0.3,0-0.4
	c0-0.2,0.1-0.4,0.1-0.7c0-0.1-0.1-0.2-0.2-0.2C5,8,4.8,8,4.7,8.2C4.5,8.3,4.5,8.5,4.5,8.7c0,0.3-0.1,0.6-0.1,0.9
	c-0.1,0.6-0.2,1.2-0.2,1.8c0,1,0.1,2.2,1.2,2.9c0.2,0.7,0.4,1.5,0.4,2.3c0.1,0.4,0,0.8,0,1.3c0,0.3-0.1,0.7-0.1,1
	c0,0.3-0.1,0.7-0.3,1C5.2,20.2,5,20.7,5,21.3c0,0.1,0.1,0.2,0.1,0.2c0.1,0,0.2,0,0.3,0c0.8-0.5,1-1.3,1.1-2c0,0,0-0.1,0-0.1
	c0.2,0.7,0.5,1.3,0.8,2c0,0.1,0.1,0.1,0.2,0.1c0.1,0,0.2,0,0.2-0.1c0.3-0.5,0.3-0.6,0.3-0.7c0-0.3-0.1-0.7-0.2-1
	c-0.6-1.8-1.1-3.6-1.3-5.3h0.1c0.6,0,1.3-0.1,1.9-0.1c0.6,0,1.3-0.1,1.9-0.1c0.4,0,0.7,0,1-0.1c1.2-0.1,2.6,0,4,0.1
	c0.5,0,1,0.1,1.5,0.1c0,0,0.1,0,0.1,0c0.1,0,0.1,0,0.2,0c0,0.1,0,0.2,0,0.3c0,0.2,0,0.4-0.1,0.5l-1.2,4.8c0,0.1,0,0.1-0.1,0.2
	c-0.1,0.3-0.2,0.7,0.2,1.2c0,0,0.1,0.1,0.2,0.1c0.1,0,0.1,0,0.2-0.1c0.4-0.5,0.6-1.1,0.7-1.6c0,0,0-0.1,0-0.1c0,0,0,0,0,0.1
	c0.1,0.5,0.3,0.9,0.5,1.4c0.1,0.3,0.4,0.3,0.7,0.4l0.2,0c0,0,0,0,0.1,0c0.1,0,0.1,0,0.2-0.1c0.1-0.1,0.1-0.2,0-0.3
	c-1-2.3-1.1-4.5-0.4-6.9C18.7,14.2,18.8,14.2,18.8,14.1z"/>
<path class="st0" d="M22.2,13.9c0.6-1.7,0.7-3.4,0.3-5.2C22,6.7,21,5.5,19.3,5c-0.6-0.2-1.2-0.3-1.8-0.4c-0.3,0-0.5-0.1-0.8-0.2
	l-0.1-0.1c-0.4-0.5-0.9-0.9-1.3-1.3c-0.2-0.2-0.4-0.4-0.7-0.6c0,0-0.1-0.1-0.1-0.1c-0.2-0.2-0.6-0.5-1.1,0.1c-0.1,0.1-0.1,0.3,0,0.3
	c1,0.9,1.9,1.8,2.8,2.7c0,0,0.1,0.1,0.1,0.1c0.1,0,0.2,0,0.3,0c0.4,0.1,0.8,0.1,1.1,0.4c0,0,0.1,0.1,0.1,0.1
	c2.5,0.4,3.5,1.7,3.6,4.6c0.1,1.1-0.1,2.4-0.5,3.5c0,0.1,0,0.1,0,0.2c0.6,1.2,1,2.5,1.1,4.1c0,0.4,0.1,0.8,0.1,1.2
	c0,0.4,0.1,0.9,0.1,1.2c0,0.4,0.1,0.6,0.3,0.6c0.1,0,0.1,0.1,0.3,0.1c0.1,0,0.2,0,0.3-0.1c0.1,0,0.1-0.1,0.1-0.2
	C23.4,18.5,23,16,22.2,13.9z"/>
<path class="st0" d="M10.3,2C10.2,1.9,10.1,1.9,10,2C9.4,2.4,8.9,2.9,8.4,3.3C8.1,3.7,7.7,4,7.4,4.3c-0.2,0-0.5,0.1-0.7,0.1
	C5.9,4.5,5.2,4.6,4.6,4.9C3.1,5.4,2.2,6.5,1.8,8.2c-0.5,1.9-0.4,3.7,0.2,5.5c-1,2.1-1.1,4.4-1.2,6.6c0,0,0,0.1,0,0.1
	c0,0.2,0,0.7,0.5,0.8c0,0,0,0,0.1,0c0,0,0.1,0,0.1,0c0.5-0.2,0.5-0.7,0.4-1c0,0,0-0.1,0-0.1c0.1-2,0.3-4.3,1.2-6.3
	c0-0.1,0-0.1,0-0.2c-0.6-1.5-0.7-3.1-0.4-4.8c0.3-1.6,1.1-2.6,2.5-3C6,5.6,6.9,5.5,7.7,5.4c0.1,0,0.1,0,0.1-0.1
	c0.7-0.7,1.5-1.5,2.3-2.2C10.4,3,10.7,2.6,10.3,2z"/>
<path class="st0" d="M15.5,17.4C14.9,17,14.3,17,13.8,17c-0.4,0-0.7,0-1.1-0.1c-0.1-0.3-0.1-0.6-0.1-0.9c0-0.5,0-1.1-0.3-1.6
	c0-0.1-0.1-0.1-0.2-0.1c-0.1,0-0.2,0-0.2,0.1c-0.5,0.6-0.5,1.2-0.5,1.7c0,0.3,0,0.6,0,0.8c-0.9,0-1.8,0-2.6,0.2
	c-0.1,0-0.1,0.1-0.2,0.1c0,0.1,0,0.1,0,0.2c0.1,0.1,0.1,0.3,0.1,0.3c0,0.1,0,0.2,0.1,0.2c0.6,0.4,1.3,0.3,1.9,0.3
	c0.3,0,0.6-0.1,0.9,0v2.1c0,0.1,0,0.4,0.2,0.5c0.1,0.1,0.2,0.1,0.4,0.1c0.1,0,0.1,0,0.2,0c0.1,0,0.2-0.1,0.2-0.2c0-0.4,0-0.9,0-1.3
	c0-0.4,0-0.8,0-1.1c0.2,0,0.5,0,0.7,0c0.7,0.1,1.4,0.1,2.1-0.4c0.1-0.1,0.1-0.1,0.1-0.2C15.6,17.5,15.6,17.4,15.5,17.4z"/>
<path class="st0" d="M16.5,6.1c-0.1-0.1-0.2-0.3-0.4-0.3c-0.3,0-0.5,0-0.8,0c-0.5,0-1.1-0.1-1.7,0c-0.4,0.1-0.8,0.4-1.2,0.6
	c-0.2,0.1-0.4,0.2-0.5,0.3c-0.2-0.1-0.3-0.2-0.5-0.3C11,6.2,10.6,5.9,10,5.8c-0.6-0.1-1.1,0-1.6,0c-0.3,0-0.5,0-0.8,0
	c-0.2,0-0.3,0.1-0.6,0.4C7.1,6.2,7,6.3,7.1,6.4c0,0,0,0.1,0.1,0.1c0,0.1,0.1,0.2,0.2,0.2h1.7c0.8,0,1.4,0.2,2,0.9
	c0.1,0.1,0.2,0.2,0.3,0.3c0.1,0.1,0.2,0.1,0.3,0.2c0,0,0.1,0.1,0.2,0.1c0.1,0,0.1,0,0.2-0.1c0,0,0.1,0,0.1,0c0.1,0,0.2-0.1,0.3-0.2
	c0.6-0.9,1.6-1.3,3-1.1c0.2,0,0.3,0,0.5-0.1c0.2,0,0.3,0,0.5,0c0.1,0,0.2-0.1,0.2-0.2C16.7,6.4,16.6,6.2,16.5,6.1z"/>
</svg>
