<?xml version="1.0" encoding="utf-8"?>
<svg version="1.1" id="Capa_2_00000090294554322208385880000002252055657421391536_"
	 xmlns="http://www.w3.org/2000/svg" xmlns:xlink="http://www.w3.org/1999/xlink" x="0px" y="0px" viewBox="0 0 24 24"
	 style="enable-background:new 0 0 24 24;" xml:space="preserve">
<style type="text/css">
	.st0{fill:#3C3C43;}
</style>
<path class="st0" d="M10.8,6.8c-0.8,1.9-0.7,3.7,0.1,5.6c1.7-1.3,3.4-1.2,5.2-0.3c0.1-0.1,0.1-0.2,0.2-0.2c0.9-1.1,2.2-1.7,3.6-1.8
	c0.3,0,0.6,0.2,0.6,0.5c0,0.3-0.2,0.5-0.5,0.5c-0.1,0-0.1,0-0.2,0c-1.2,0.1-2.1,0.6-2.8,1.5c-0.3,0.4-0.4,0.8-0.4,1.2
	c0,0.1,0,0.3-0.1,0.4c-0.1,0.2-0.3,0.3-0.5,0.2c-0.2-0.1-0.4-0.2-0.4-0.5c0-0.3,0.1-0.7,0.1-1c-1.2-0.7-3.2-0.9-4.3,0.5
	c-0.1,0.2-0.2,0.3-0.4,0.5c-0.2,0.3-0.5,0.4-0.7,0.2C9.9,14,9.8,13.7,10,13.4c0.1-0.2,0.1-0.3,0-0.5c-1-2.1-1.1-4.2-0.2-6.4
	c0-0.1,0-0.2,0-0.3C9.8,6,9.8,5.8,10,5.6c0.2-0.2,0.4-0.2,0.6-0.1c0.4,0.2,0.7,0.4,1.1,0.6c0.1,0,0.2,0.1,0.2,0
	c0.6-0.3,1.2-0.6,1.7-1c0.7-0.5,0.6-1-0.1-1.4c-0.6-0.3-1.1-0.7-1.7-1c-0.4-0.2-0.7-0.2-1.1,0c-0.3,0.2-0.5,0.4-0.7,0.6
	c-1.6,1.6-3,3.3-4,5.4c-0.7,1.5-1.1,3.1-1.2,4.8c0,0.9-0.1,1.8-0.1,2.7c0,0.1,0,0.2,0.1,0.3c0.7,1.1,1.7,1.7,2.9,2.2
	c1.7,0.7,3.5,0.9,5.3,0.7c1.3-0.1,2.5-0.4,3.7-1c0.5-0.3,1-0.6,1.3-1.2c0.2-0.3,0.5-0.4,0.7-0.2c0.3,0.2,0.3,0.5,0.1,0.7
	c-0.3,0.4-0.6,0.7-1,1c-0.1,0.1-0.1,0.1-0.2,0.2c0.8,0.8,1.1,1.8,1.2,3c0,0.4-0.2,0.6-0.6,0.5c-0.2,0-0.4-0.2-0.4-0.6
	c0-0.5-0.1-1-0.4-1.4c-0.2-0.3-0.4-0.6-0.6-0.9c0-0.1-0.2-0.1-0.3,0c-2.9,1.2-5.9,1.2-8.9,0.3c-1.6-0.5-3-1.4-3.9-2.9
	c-0.1-0.2-0.2-0.5-0.2-0.7c0.1-0.9,0.1-1.7,0.1-2.6c0.1-2.7,1-5.2,2.5-7.4c0.9-1.3,2-2.6,3.1-3.7c0.4-0.4,0.9-0.8,1.5-0.9
	c0.5-0.1,0.9,0,1.4,0.2c0.6,0.4,1.2,0.7,1.8,1c0.6,0.4,1.1,0.9,1,1.7c0,0.6-0.4,1.1-0.9,1.4c-0.7,0.5-1.5,0.9-2.2,1.3
	c-0.2,0.1-0.4,0-0.6-0.1C11.2,7,11,6.9,10.8,6.8z"/>
<path class="st0" d="M12.8,17.5c-0.6,0-1.2-0.1-1.8-0.4c-0.3-0.2-0.4-0.4-0.3-0.7c0.1-0.3,0.4-0.4,0.7-0.2c1.1,0.5,2.1,0.4,3.2-0.1
	c0.1,0,0.1-0.1,0.2-0.1c0.3-0.1,0.5,0,0.6,0.2c0.1,0.3,0,0.5-0.2,0.7c-0.7,0.4-1.4,0.6-2.2,0.6C12.9,17.5,12.9,17.5,12.8,17.5z"/>
</svg>
