<?xml version="1.0" encoding="utf-8"?>
<svg version="1.1" id="Capa_3" xmlns="http://www.w3.org/2000/svg" xmlns:xlink="http://www.w3.org/1999/xlink" x="0px" y="0px"
	 viewBox="0 0 24 24" style="enable-background:new 0 0 24 24;" xml:space="preserve">
<style type="text/css">
	.st0{fill:#3C3C43;}
</style>
<path class="st0" d="M7,18.7l0-4.1c0-0.6-0.5-1-1-1s-1,0.5-1,1l0,4.1c0,0.6,0.5,1,1,1C6.5,19.7,7,19.3,7,18.7z"/>
<path class="st0" d="M13,18.7l0-9.1c0-0.6-0.5-1-1-1s-1,0.5-1,1l0,9.1c0,0.6,0.5,1,1,1C12.5,19.7,13,19.3,13,18.7z"/>
<path class="st0" d="M19,18.7l0-14.1c0-0.6-0.5-1-1-1c-0.5,0-1,0.5-1,1l0,14.1c0,0.6,0.5,1,1,1C18.5,19.7,19,19.3,19,18.7z"/>
</svg>
