<?xml version="1.0" encoding="iso-8859-1"?>
<svg fill="#3C3C43" height="24" width="24" version="1.1" id="Capa_1" xmlns="http://www.w3.org/2000/svg" xmlns:xlink="http://www.w3.org/1999/xlink" 
	 viewBox="0 0 297 297" xml:space="preserve">
<g>
	<path d="M287.333,91.498h-27.355c5.136,13.173,3.258,27.396,1.572,40.143c-0.798,6.028-1.551,11.723-1.551,16.86
		c0,5.138,0.753,10.831,1.551,16.859c1.728,13.067,3.655,27.688-1.978,41.138h27.761c5.522,0,9.667-4.477,9.667-10v-95
		C297,95.976,292.855,91.498,287.333,91.498z"/>
	<path d="M35.115,165.36c0.798-6.028,1.551-11.722,1.551-16.859c0-5.138-0.753-10.832-1.551-16.86
		c-1.686-12.746-3.563-26.97,1.573-40.143H10.333C4.81,91.498,0,95.976,0,101.498v95c0,5.523,4.81,10,10.333,10h26.76
		C31.46,193.049,33.388,178.428,35.115,165.36z"/>
	<path d="M196.668,64.765c-15.249-8.823-29.449-26.932-48.334-26.932c-18.885,0-33.085,18.108-48.335,26.932
		c-15.732,9.103-38.416,12.656-47.519,28.39c-8.823,15.25-0.814,36.461-0.814,55.347c0,18.885-8.009,40.097,0.814,55.346
		c9.104,15.732,31.786,19.286,47.52,28.389c15.249,8.823,29.449,26.932,48.334,26.932c18.885,0,33.085-18.108,48.334-26.932
		c15.732-9.103,38.415-12.656,47.517-28.389c8.823-15.249,0.815-36.461,0.815-55.346c0-18.885,8.009-40.097-0.814-55.347
		C235.084,77.422,212.401,73.867,196.668,64.765z M227.959,148.501c0,43.905-35.72,79.625-79.625,79.625
		c-43.906,0-79.627-35.72-79.627-79.625c0-43.906,35.721-79.627,79.627-79.627C192.239,68.874,227.959,104.595,227.959,148.501z"/>
	<path d="M148.334,83.874c-35.637,0-64.627,28.99-64.627,64.627c0,35.633,28.99,64.625,64.627,64.625
		c35.635,0,64.625-28.992,64.625-64.625C212.959,112.864,183.969,83.874,148.334,83.874z"/>
</g>
</svg>